P1
66 6
100010111110010000010000011100000000100010011100111100010000111100
100010100000010000010000100010000000100010100010100010010000100010
111110111100010000010000100010000000101010100010111100010000100010
100010100000010000010000100010000000101010100010110000010000100010
100010100000010000010000100010000000101010100010101000010000100010
100010111110011110011110011100000000110110011100100100011110111100
